%TF.GenerationSoftware,KiCad,Pcbnew,5.99.0+really5.1.10+dfsg1-1*%
%TF.CreationDate,2021-10-04T18:21:49+05:30*%
%TF.ProjectId,HF-PA-v3,48462d50-412d-4763-932e-6b696361645f,rev?*%
%TF.SameCoordinates,Original*%
%TF.FileFunction,Legend,Top*%
%TF.FilePolarity,Positive*%
%FSLAX46Y46*%
G04 Gerber Fmt 4.6, Leading zero omitted, Abs format (unit mm)*
G04 Created by KiCad (PCBNEW 5.99.0+really5.1.10+dfsg1-1) date 2021-10-04 18:21:49*
%MOMM*%
%LPD*%
G01*
G04 APERTURE LIST*
%ADD10C,0.120000*%
%ADD11C,0.150000*%
G04 APERTURE END LIST*
D10*
%TO.C,C6*%
X98528000Y-73352000D02*
X103068000Y-73352000D01*
X98528000Y-75492000D02*
X103068000Y-75492000D01*
X98528000Y-73352000D02*
X98528000Y-73367000D01*
X98528000Y-75477000D02*
X98528000Y-75492000D01*
X103068000Y-73352000D02*
X103068000Y-73367000D01*
X103068000Y-75477000D02*
X103068000Y-75492000D01*
%TO.C,C5*%
X93264775Y-82945000D02*
X93264775Y-82445000D01*
X93514775Y-82695000D02*
X93014775Y-82695000D01*
X88109000Y-81504000D02*
X88109000Y-80936000D01*
X88149000Y-81738000D02*
X88149000Y-80702000D01*
X88189000Y-81897000D02*
X88189000Y-80543000D01*
X88229000Y-82025000D02*
X88229000Y-80415000D01*
X88269000Y-82135000D02*
X88269000Y-80305000D01*
X88309000Y-82231000D02*
X88309000Y-80209000D01*
X88349000Y-82318000D02*
X88349000Y-80122000D01*
X88389000Y-82398000D02*
X88389000Y-80042000D01*
X88429000Y-80180000D02*
X88429000Y-79969000D01*
X88429000Y-82471000D02*
X88429000Y-82260000D01*
X88469000Y-80180000D02*
X88469000Y-79901000D01*
X88469000Y-82539000D02*
X88469000Y-82260000D01*
X88509000Y-80180000D02*
X88509000Y-79837000D01*
X88509000Y-82603000D02*
X88509000Y-82260000D01*
X88549000Y-80180000D02*
X88549000Y-79777000D01*
X88549000Y-82663000D02*
X88549000Y-82260000D01*
X88589000Y-80180000D02*
X88589000Y-79720000D01*
X88589000Y-82720000D02*
X88589000Y-82260000D01*
X88629000Y-80180000D02*
X88629000Y-79666000D01*
X88629000Y-82774000D02*
X88629000Y-82260000D01*
X88669000Y-80180000D02*
X88669000Y-79615000D01*
X88669000Y-82825000D02*
X88669000Y-82260000D01*
X88709000Y-80180000D02*
X88709000Y-79567000D01*
X88709000Y-82873000D02*
X88709000Y-82260000D01*
X88749000Y-80180000D02*
X88749000Y-79521000D01*
X88749000Y-82919000D02*
X88749000Y-82260000D01*
X88789000Y-80180000D02*
X88789000Y-79477000D01*
X88789000Y-82963000D02*
X88789000Y-82260000D01*
X88829000Y-80180000D02*
X88829000Y-79435000D01*
X88829000Y-83005000D02*
X88829000Y-82260000D01*
X88869000Y-80180000D02*
X88869000Y-79394000D01*
X88869000Y-83046000D02*
X88869000Y-82260000D01*
X88909000Y-80180000D02*
X88909000Y-79356000D01*
X88909000Y-83084000D02*
X88909000Y-82260000D01*
X88949000Y-80180000D02*
X88949000Y-79319000D01*
X88949000Y-83121000D02*
X88949000Y-82260000D01*
X88989000Y-80180000D02*
X88989000Y-79283000D01*
X88989000Y-83157000D02*
X88989000Y-82260000D01*
X89029000Y-80180000D02*
X89029000Y-79249000D01*
X89029000Y-83191000D02*
X89029000Y-82260000D01*
X89069000Y-80180000D02*
X89069000Y-79216000D01*
X89069000Y-83224000D02*
X89069000Y-82260000D01*
X89109000Y-80180000D02*
X89109000Y-79185000D01*
X89109000Y-83255000D02*
X89109000Y-82260000D01*
X89149000Y-80180000D02*
X89149000Y-79155000D01*
X89149000Y-83285000D02*
X89149000Y-82260000D01*
X89189000Y-80180000D02*
X89189000Y-79125000D01*
X89189000Y-83315000D02*
X89189000Y-82260000D01*
X89229000Y-80180000D02*
X89229000Y-79098000D01*
X89229000Y-83342000D02*
X89229000Y-82260000D01*
X89269000Y-80180000D02*
X89269000Y-79071000D01*
X89269000Y-83369000D02*
X89269000Y-82260000D01*
X89309000Y-80180000D02*
X89309000Y-79045000D01*
X89309000Y-83395000D02*
X89309000Y-82260000D01*
X89349000Y-80180000D02*
X89349000Y-79020000D01*
X89349000Y-83420000D02*
X89349000Y-82260000D01*
X89389000Y-80180000D02*
X89389000Y-78996000D01*
X89389000Y-83444000D02*
X89389000Y-82260000D01*
X89429000Y-80180000D02*
X89429000Y-78973000D01*
X89429000Y-83467000D02*
X89429000Y-82260000D01*
X89469000Y-80180000D02*
X89469000Y-78952000D01*
X89469000Y-83488000D02*
X89469000Y-82260000D01*
X89509000Y-80180000D02*
X89509000Y-78930000D01*
X89509000Y-83510000D02*
X89509000Y-82260000D01*
X89549000Y-80180000D02*
X89549000Y-78910000D01*
X89549000Y-83530000D02*
X89549000Y-82260000D01*
X89589000Y-80180000D02*
X89589000Y-78891000D01*
X89589000Y-83549000D02*
X89589000Y-82260000D01*
X89629000Y-80180000D02*
X89629000Y-78872000D01*
X89629000Y-83568000D02*
X89629000Y-82260000D01*
X89669000Y-80180000D02*
X89669000Y-78855000D01*
X89669000Y-83585000D02*
X89669000Y-82260000D01*
X89709000Y-80180000D02*
X89709000Y-78838000D01*
X89709000Y-83602000D02*
X89709000Y-82260000D01*
X89749000Y-80180000D02*
X89749000Y-78822000D01*
X89749000Y-83618000D02*
X89749000Y-82260000D01*
X89789000Y-80180000D02*
X89789000Y-78806000D01*
X89789000Y-83634000D02*
X89789000Y-82260000D01*
X89829000Y-80180000D02*
X89829000Y-78792000D01*
X89829000Y-83648000D02*
X89829000Y-82260000D01*
X89869000Y-80180000D02*
X89869000Y-78778000D01*
X89869000Y-83662000D02*
X89869000Y-82260000D01*
X89909000Y-80180000D02*
X89909000Y-78765000D01*
X89909000Y-83675000D02*
X89909000Y-82260000D01*
X89949000Y-80180000D02*
X89949000Y-78752000D01*
X89949000Y-83688000D02*
X89949000Y-82260000D01*
X89989000Y-80180000D02*
X89989000Y-78740000D01*
X89989000Y-83700000D02*
X89989000Y-82260000D01*
X90030000Y-80180000D02*
X90030000Y-78729000D01*
X90030000Y-83711000D02*
X90030000Y-82260000D01*
X90070000Y-80180000D02*
X90070000Y-78719000D01*
X90070000Y-83721000D02*
X90070000Y-82260000D01*
X90110000Y-80180000D02*
X90110000Y-78709000D01*
X90110000Y-83731000D02*
X90110000Y-82260000D01*
X90150000Y-80180000D02*
X90150000Y-78700000D01*
X90150000Y-83740000D02*
X90150000Y-82260000D01*
X90190000Y-80180000D02*
X90190000Y-78692000D01*
X90190000Y-83748000D02*
X90190000Y-82260000D01*
X90230000Y-80180000D02*
X90230000Y-78684000D01*
X90230000Y-83756000D02*
X90230000Y-82260000D01*
X90270000Y-80180000D02*
X90270000Y-78677000D01*
X90270000Y-83763000D02*
X90270000Y-82260000D01*
X90310000Y-80180000D02*
X90310000Y-78670000D01*
X90310000Y-83770000D02*
X90310000Y-82260000D01*
X90350000Y-80180000D02*
X90350000Y-78664000D01*
X90350000Y-83776000D02*
X90350000Y-82260000D01*
X90390000Y-80180000D02*
X90390000Y-78659000D01*
X90390000Y-83781000D02*
X90390000Y-82260000D01*
X90430000Y-80180000D02*
X90430000Y-78655000D01*
X90430000Y-83785000D02*
X90430000Y-82260000D01*
X90470000Y-80180000D02*
X90470000Y-78651000D01*
X90470000Y-83789000D02*
X90470000Y-82260000D01*
X90510000Y-83793000D02*
X90510000Y-78647000D01*
X90550000Y-83796000D02*
X90550000Y-78644000D01*
X90590000Y-83798000D02*
X90590000Y-78642000D01*
X90630000Y-83799000D02*
X90630000Y-78641000D01*
X90670000Y-83800000D02*
X90670000Y-78640000D01*
X90710000Y-83800000D02*
X90710000Y-78640000D01*
X93330000Y-81220000D02*
G75*
G03*
X93330000Y-81220000I-2620000J0D01*
G01*
%TO.C,TP1*%
X115030000Y-99640000D02*
X117690000Y-99640000D01*
X115030000Y-99580000D02*
X115030000Y-99640000D01*
X117690000Y-99580000D02*
X117690000Y-99640000D01*
X115030000Y-99580000D02*
X117690000Y-99580000D01*
X115030000Y-98310000D02*
X115030000Y-96980000D01*
X115030000Y-96980000D02*
X116360000Y-96980000D01*
%TO.C,D1*%
X108650635Y-92660000D02*
G75*
G03*
X108650635Y-92660000I-1750635J0D01*
G01*
X108650635Y-92660000D02*
X109310000Y-92660000D01*
%TO.C,RV2*%
X107000000Y-82900000D02*
X107690000Y-82900000D01*
X107000000Y-83000000D02*
X107000000Y-82900000D01*
X107000000Y-89520000D02*
X107250000Y-89520000D01*
X107000000Y-89420000D02*
X107000000Y-89520000D01*
X106800000Y-89420000D02*
X107000000Y-89420000D01*
X107000000Y-88000000D02*
X106800000Y-88000000D01*
X114020000Y-84210000D02*
X114020000Y-85700000D01*
X108730000Y-82900000D02*
X112710000Y-82900000D01*
X112710000Y-89520000D02*
X109170000Y-89520000D01*
X114020000Y-86720000D02*
X114020000Y-88210000D01*
X106800000Y-83000000D02*
X107000000Y-83000000D01*
X106800000Y-84420000D02*
X106800000Y-83000000D01*
X107000000Y-84420000D02*
X106800000Y-84420000D01*
X107000000Y-88000000D02*
X107000000Y-84420000D01*
X106800000Y-89420000D02*
X106800000Y-88000000D01*
X114020000Y-88210000D02*
G75*
G02*
X112710000Y-89520000I-1310000J0D01*
G01*
X112710000Y-82900000D02*
G75*
G02*
X114020000Y-84210000I0J-1310000D01*
G01*
%TO.C,L1*%
X130620000Y-83900000D02*
X130620000Y-87765000D01*
X130620000Y-90275000D02*
X130620000Y-94140000D01*
X125380000Y-83900000D02*
X125380000Y-87765000D01*
X125380000Y-90275000D02*
X125380000Y-94140000D01*
X130620000Y-83900000D02*
X125380000Y-83900000D01*
X130620000Y-94140000D02*
X125380000Y-94140000D01*
%TO.C,L2*%
X102850000Y-97810000D02*
X97350000Y-98310000D01*
X102850000Y-98810000D02*
X97350000Y-99310000D01*
X102850000Y-99810000D02*
X97350000Y-100310000D01*
X102850000Y-100810000D02*
X97350000Y-101310000D01*
X102850000Y-101810000D02*
X97350000Y-102310000D01*
X102850000Y-102810000D02*
X97350000Y-103310000D01*
X102850000Y-103810000D02*
X97350000Y-104310000D01*
X102850000Y-104810000D02*
X97350000Y-105310000D01*
X102850000Y-105810000D02*
X97350000Y-106310000D01*
X102850000Y-106810000D02*
X97350000Y-107310000D01*
X97350000Y-95810000D02*
X102850000Y-95810000D01*
X97350000Y-108810000D02*
X97350000Y-95810000D01*
X102850000Y-108810000D02*
X97350000Y-108810000D01*
X102850000Y-95810000D02*
X102850000Y-108810000D01*
%TO.C,Q1*%
X129280000Y-72410000D02*
X129280000Y-75070000D01*
X129280000Y-72410000D02*
X124140000Y-72410000D01*
X124140000Y-72410000D02*
X124140000Y-75070000D01*
X129280000Y-75070000D02*
X124140000Y-75070000D01*
X131880000Y-75070000D02*
X130550000Y-75070000D01*
X131880000Y-73740000D02*
X131880000Y-75070000D01*
%TO.C,C4*%
X106704000Y-78540000D02*
X102164000Y-78540000D01*
X106704000Y-76400000D02*
X102164000Y-76400000D01*
X106704000Y-78540000D02*
X106704000Y-78525000D01*
X106704000Y-76415000D02*
X106704000Y-76400000D01*
X102164000Y-78540000D02*
X102164000Y-78525000D01*
X102164000Y-76415000D02*
X102164000Y-76400000D01*
%TO.C,U1*%
X98660000Y-84489000D02*
X100170000Y-84489000D01*
X98660000Y-88190000D02*
X100170000Y-88190000D01*
X100170000Y-91460000D02*
X100170000Y-81220000D01*
X98660000Y-81220000D02*
X103301000Y-81220000D01*
X98660000Y-91460000D02*
X103301000Y-91460000D01*
X103301000Y-91460000D02*
X103301000Y-81220000D01*
X98660000Y-91460000D02*
X98660000Y-81220000D01*
%TO.C,R1*%
X126560000Y-81100000D02*
X126630000Y-81100000D01*
X126560000Y-81100000D02*
G75*
G03*
X126560000Y-81100000I-1370000J0D01*
G01*
%TO.C,C1*%
X123250000Y-66905000D02*
X123250000Y-66890000D01*
X123250000Y-69030000D02*
X123250000Y-69015000D01*
X127790000Y-66905000D02*
X127790000Y-66890000D01*
X127790000Y-69030000D02*
X127790000Y-69015000D01*
X127790000Y-66890000D02*
X123250000Y-66890000D01*
X127790000Y-69030000D02*
X123250000Y-69030000D01*
%TO.C,U2*%
X73070000Y-108650000D02*
X73070000Y-63650000D01*
X73070000Y-63650000D02*
X84070000Y-63650000D01*
X84070000Y-63650000D02*
X84070000Y-108650000D01*
X84070000Y-108650000D02*
X73070000Y-108650000D01*
%TO.C,C3*%
X117255000Y-88280000D02*
X117240000Y-88280000D01*
X119380000Y-88280000D02*
X119365000Y-88280000D01*
X117255000Y-83740000D02*
X117240000Y-83740000D01*
X119380000Y-83740000D02*
X119365000Y-83740000D01*
X117240000Y-83740000D02*
X117240000Y-88280000D01*
X119380000Y-83740000D02*
X119380000Y-88280000D01*
%TO.C,C7*%
X92150000Y-103375000D02*
X92150000Y-103390000D01*
X92150000Y-101250000D02*
X92150000Y-101265000D01*
X87610000Y-103375000D02*
X87610000Y-103390000D01*
X87610000Y-101250000D02*
X87610000Y-101265000D01*
X87610000Y-103390000D02*
X92150000Y-103390000D01*
X87610000Y-101250000D02*
X92150000Y-101250000D01*
%TO.C,R5*%
X120420000Y-100890000D02*
X120420000Y-100960000D01*
X121790000Y-99520000D02*
G75*
G03*
X121790000Y-99520000I-1370000J0D01*
G01*
%TO.C,R4*%
X120480000Y-107190000D02*
X120480000Y-107260000D01*
X121850000Y-105820000D02*
G75*
G03*
X121850000Y-105820000I-1370000J0D01*
G01*
%TO.C,PWM1*%
X129780000Y-98190000D02*
X131110000Y-98190000D01*
X129780000Y-99520000D02*
X129780000Y-98190000D01*
X129780000Y-100790000D02*
X132440000Y-100790000D01*
X132440000Y-100790000D02*
X132440000Y-103390000D01*
X129780000Y-100790000D02*
X129780000Y-103390000D01*
X129780000Y-103390000D02*
X132440000Y-103390000D01*
%TO.C,C8*%
X130075000Y-110600000D02*
X130060000Y-110600000D01*
X132200000Y-110600000D02*
X132185000Y-110600000D01*
X130075000Y-106060000D02*
X130060000Y-106060000D01*
X132200000Y-106060000D02*
X132185000Y-106060000D01*
X130060000Y-106060000D02*
X130060000Y-110600000D01*
X132200000Y-106060000D02*
X132200000Y-110600000D01*
%TO.C,RF_OUT1*%
X92980000Y-64875000D02*
X95880000Y-64875000D01*
X92980000Y-71585000D02*
X95880000Y-71585000D01*
X97785000Y-66780000D02*
X97785000Y-69680000D01*
X91075000Y-66780000D02*
X91075000Y-69680000D01*
%TO.C,R3*%
X110530000Y-108370000D02*
G75*
G03*
X110530000Y-108370000I-1370000J0D01*
G01*
X110530000Y-108370000D02*
X110600000Y-108370000D01*
%TO.C,C2*%
X116590000Y-91610000D02*
X121130000Y-91610000D01*
X116590000Y-93750000D02*
X121130000Y-93750000D01*
X116590000Y-91610000D02*
X116590000Y-91625000D01*
X116590000Y-93735000D02*
X116590000Y-93750000D01*
X121130000Y-91610000D02*
X121130000Y-91625000D01*
X121130000Y-93735000D02*
X121130000Y-93750000D01*
%TO.C,PA1*%
X88140000Y-87560000D02*
X88140000Y-90220000D01*
X90740000Y-87560000D02*
X88140000Y-87560000D01*
X90740000Y-90220000D02*
X88140000Y-90220000D01*
X90740000Y-87560000D02*
X90740000Y-90220000D01*
X92010000Y-87560000D02*
X93340000Y-87560000D01*
X93340000Y-87560000D02*
X93340000Y-88890000D01*
%TO.C,RF_IN1*%
X111885000Y-66490000D02*
X111885000Y-69390000D01*
X118595000Y-66490000D02*
X118595000Y-69390000D01*
X113790000Y-71295000D02*
X116690000Y-71295000D01*
X113790000Y-64585000D02*
X116690000Y-64585000D01*
%TO.C,R2*%
X110550000Y-102600000D02*
X110620000Y-102600000D01*
X110550000Y-102600000D02*
G75*
G03*
X110550000Y-102600000I-1370000J0D01*
G01*
%TO.C,Q2*%
X103870000Y-116450000D02*
X93630000Y-116450000D01*
X103870000Y-111809000D02*
X93630000Y-111809000D01*
X103870000Y-116450000D02*
X103870000Y-111809000D01*
X93630000Y-116450000D02*
X93630000Y-111809000D01*
X103870000Y-114940000D02*
X93630000Y-114940000D01*
X100600000Y-116450000D02*
X100600000Y-114940000D01*
X96899000Y-116450000D02*
X96899000Y-114940000D01*
%TO.C,C6*%
D11*
X104065142Y-71978666D02*
X104112761Y-72026285D01*
X104160380Y-72169142D01*
X104160380Y-72264380D01*
X104112761Y-72407238D01*
X104017523Y-72502476D01*
X103922285Y-72550095D01*
X103731809Y-72597714D01*
X103588952Y-72597714D01*
X103398476Y-72550095D01*
X103303238Y-72502476D01*
X103208000Y-72407238D01*
X103160380Y-72264380D01*
X103160380Y-72169142D01*
X103208000Y-72026285D01*
X103255619Y-71978666D01*
X103160380Y-71121523D02*
X103160380Y-71312000D01*
X103208000Y-71407238D01*
X103255619Y-71454857D01*
X103398476Y-71550095D01*
X103588952Y-71597714D01*
X103969904Y-71597714D01*
X104065142Y-71550095D01*
X104112761Y-71502476D01*
X104160380Y-71407238D01*
X104160380Y-71216761D01*
X104112761Y-71121523D01*
X104065142Y-71073904D01*
X103969904Y-71026285D01*
X103731809Y-71026285D01*
X103636571Y-71073904D01*
X103588952Y-71121523D01*
X103541333Y-71216761D01*
X103541333Y-71407238D01*
X103588952Y-71502476D01*
X103636571Y-71550095D01*
X103731809Y-71597714D01*
%TO.C,C5*%
X90543333Y-85327142D02*
X90495714Y-85374761D01*
X90352857Y-85422380D01*
X90257619Y-85422380D01*
X90114761Y-85374761D01*
X90019523Y-85279523D01*
X89971904Y-85184285D01*
X89924285Y-84993809D01*
X89924285Y-84850952D01*
X89971904Y-84660476D01*
X90019523Y-84565238D01*
X90114761Y-84470000D01*
X90257619Y-84422380D01*
X90352857Y-84422380D01*
X90495714Y-84470000D01*
X90543333Y-84517619D01*
X91448095Y-84422380D02*
X90971904Y-84422380D01*
X90924285Y-84898571D01*
X90971904Y-84850952D01*
X91067142Y-84803333D01*
X91305238Y-84803333D01*
X91400476Y-84850952D01*
X91448095Y-84898571D01*
X91495714Y-84993809D01*
X91495714Y-85231904D01*
X91448095Y-85327142D01*
X91400476Y-85374761D01*
X91305238Y-85422380D01*
X91067142Y-85422380D01*
X90971904Y-85374761D01*
X90924285Y-85327142D01*
%TO.C,TP1*%
X111678095Y-99332380D02*
X112249523Y-99332380D01*
X111963809Y-100332380D02*
X111963809Y-99332380D01*
X112582857Y-100332380D02*
X112582857Y-99332380D01*
X112963809Y-99332380D01*
X113059047Y-99380000D01*
X113106666Y-99427619D01*
X113154285Y-99522857D01*
X113154285Y-99665714D01*
X113106666Y-99760952D01*
X113059047Y-99808571D01*
X112963809Y-99856190D01*
X112582857Y-99856190D01*
X114106666Y-100332380D02*
X113535238Y-100332380D01*
X113820952Y-100332380D02*
X113820952Y-99332380D01*
X113725714Y-99475238D01*
X113630476Y-99570476D01*
X113535238Y-99618095D01*
%TO.C,D1*%
X108851904Y-96012380D02*
X108851904Y-95012380D01*
X109090000Y-95012380D01*
X109232857Y-95060000D01*
X109328095Y-95155238D01*
X109375714Y-95250476D01*
X109423333Y-95440952D01*
X109423333Y-95583809D01*
X109375714Y-95774285D01*
X109328095Y-95869523D01*
X109232857Y-95964761D01*
X109090000Y-96012380D01*
X108851904Y-96012380D01*
X110375714Y-96012380D02*
X109804285Y-96012380D01*
X110090000Y-96012380D02*
X110090000Y-95012380D01*
X109994761Y-95155238D01*
X109899523Y-95250476D01*
X109804285Y-95298095D01*
X108671904Y-93926666D02*
X109148095Y-93926666D01*
X108576666Y-94212380D02*
X108910000Y-93212380D01*
X109243333Y-94212380D01*
%TO.C,RV2*%
X105712380Y-87595238D02*
X105236190Y-87928571D01*
X105712380Y-88166666D02*
X104712380Y-88166666D01*
X104712380Y-87785714D01*
X104760000Y-87690476D01*
X104807619Y-87642857D01*
X104902857Y-87595238D01*
X105045714Y-87595238D01*
X105140952Y-87642857D01*
X105188571Y-87690476D01*
X105236190Y-87785714D01*
X105236190Y-88166666D01*
X104712380Y-87309523D02*
X105712380Y-86976190D01*
X104712380Y-86642857D01*
X104807619Y-86357142D02*
X104760000Y-86309523D01*
X104712380Y-86214285D01*
X104712380Y-85976190D01*
X104760000Y-85880952D01*
X104807619Y-85833333D01*
X104902857Y-85785714D01*
X104998095Y-85785714D01*
X105140952Y-85833333D01*
X105712380Y-86404761D01*
X105712380Y-85785714D01*
%TO.C,L1*%
X125883333Y-95912380D02*
X125407142Y-95912380D01*
X125407142Y-94912380D01*
X126740476Y-95912380D02*
X126169047Y-95912380D01*
X126454761Y-95912380D02*
X126454761Y-94912380D01*
X126359523Y-95055238D01*
X126264285Y-95150476D01*
X126169047Y-95198095D01*
%TO.C,L2*%
X105503333Y-111172380D02*
X105027142Y-111172380D01*
X105027142Y-110172380D01*
X105789047Y-110267619D02*
X105836666Y-110220000D01*
X105931904Y-110172380D01*
X106170000Y-110172380D01*
X106265238Y-110220000D01*
X106312857Y-110267619D01*
X106360476Y-110362857D01*
X106360476Y-110458095D01*
X106312857Y-110600952D01*
X105741428Y-111172380D01*
X106360476Y-111172380D01*
%TO.C,Q1*%
X130744761Y-71297619D02*
X130649523Y-71250000D01*
X130554285Y-71154761D01*
X130411428Y-71011904D01*
X130316190Y-70964285D01*
X130220952Y-70964285D01*
X130268571Y-71202380D02*
X130173333Y-71154761D01*
X130078095Y-71059523D01*
X130030476Y-70869047D01*
X130030476Y-70535714D01*
X130078095Y-70345238D01*
X130173333Y-70250000D01*
X130268571Y-70202380D01*
X130459047Y-70202380D01*
X130554285Y-70250000D01*
X130649523Y-70345238D01*
X130697142Y-70535714D01*
X130697142Y-70869047D01*
X130649523Y-71059523D01*
X130554285Y-71154761D01*
X130459047Y-71202380D01*
X130268571Y-71202380D01*
X131649523Y-71202380D02*
X131078095Y-71202380D01*
X131363809Y-71202380D02*
X131363809Y-70202380D01*
X131268571Y-70345238D01*
X131173333Y-70440476D01*
X131078095Y-70488095D01*
%TO.C,C4*%
X104267333Y-80027142D02*
X104219714Y-80074761D01*
X104076857Y-80122380D01*
X103981619Y-80122380D01*
X103838761Y-80074761D01*
X103743523Y-79979523D01*
X103695904Y-79884285D01*
X103648285Y-79693809D01*
X103648285Y-79550952D01*
X103695904Y-79360476D01*
X103743523Y-79265238D01*
X103838761Y-79170000D01*
X103981619Y-79122380D01*
X104076857Y-79122380D01*
X104219714Y-79170000D01*
X104267333Y-79217619D01*
X105124476Y-79455714D02*
X105124476Y-80122380D01*
X104886380Y-79074761D02*
X104648285Y-79789047D01*
X105267333Y-79789047D01*
%TO.C,U1*%
X96480380Y-83311904D02*
X97289904Y-83311904D01*
X97385142Y-83264285D01*
X97432761Y-83216666D01*
X97480380Y-83121428D01*
X97480380Y-82930952D01*
X97432761Y-82835714D01*
X97385142Y-82788095D01*
X97289904Y-82740476D01*
X96480380Y-82740476D01*
X97480380Y-81740476D02*
X97480380Y-82311904D01*
X97480380Y-82026190D02*
X96480380Y-82026190D01*
X96623238Y-82121428D01*
X96718476Y-82216666D01*
X96766095Y-82311904D01*
%TO.C,R1*%
X121803333Y-76412380D02*
X121470000Y-75936190D01*
X121231904Y-76412380D02*
X121231904Y-75412380D01*
X121612857Y-75412380D01*
X121708095Y-75460000D01*
X121755714Y-75507619D01*
X121803333Y-75602857D01*
X121803333Y-75745714D01*
X121755714Y-75840952D01*
X121708095Y-75888571D01*
X121612857Y-75936190D01*
X121231904Y-75936190D01*
X122755714Y-76412380D02*
X122184285Y-76412380D01*
X122470000Y-76412380D02*
X122470000Y-75412380D01*
X122374761Y-75555238D01*
X122279523Y-75650476D01*
X122184285Y-75698095D01*
%TO.C,C1*%
X125263333Y-70897142D02*
X125215714Y-70944761D01*
X125072857Y-70992380D01*
X124977619Y-70992380D01*
X124834761Y-70944761D01*
X124739523Y-70849523D01*
X124691904Y-70754285D01*
X124644285Y-70563809D01*
X124644285Y-70420952D01*
X124691904Y-70230476D01*
X124739523Y-70135238D01*
X124834761Y-70040000D01*
X124977619Y-69992380D01*
X125072857Y-69992380D01*
X125215714Y-70040000D01*
X125263333Y-70087619D01*
X126215714Y-70992380D02*
X125644285Y-70992380D01*
X125930000Y-70992380D02*
X125930000Y-69992380D01*
X125834761Y-70135238D01*
X125739523Y-70230476D01*
X125644285Y-70278095D01*
%TO.C,U2*%
X79082380Y-86103904D02*
X79891904Y-86103904D01*
X79987142Y-86056285D01*
X80034761Y-86008666D01*
X80082380Y-85913428D01*
X80082380Y-85722952D01*
X80034761Y-85627714D01*
X79987142Y-85580095D01*
X79891904Y-85532476D01*
X79082380Y-85532476D01*
X79177619Y-85103904D02*
X79130000Y-85056285D01*
X79082380Y-84961047D01*
X79082380Y-84722952D01*
X79130000Y-84627714D01*
X79177619Y-84580095D01*
X79272857Y-84532476D01*
X79368095Y-84532476D01*
X79510952Y-84580095D01*
X80082380Y-85151523D01*
X80082380Y-84532476D01*
X82256666Y-69319047D02*
X82256666Y-68842857D01*
X82542380Y-69414285D02*
X81542380Y-69080952D01*
X82542380Y-68747619D01*
X82542380Y-68414285D02*
X81542380Y-68414285D01*
X82542380Y-67842857D01*
X81542380Y-67842857D01*
X81542380Y-67509523D02*
X81542380Y-66938095D01*
X82542380Y-67223809D02*
X81542380Y-67223809D01*
X82542380Y-66080952D02*
X82542380Y-66652380D01*
X82542380Y-66366666D02*
X81542380Y-66366666D01*
X81685238Y-66461904D01*
X81780476Y-66557142D01*
X81828095Y-66652380D01*
X79716666Y-69319047D02*
X79716666Y-68842857D01*
X80002380Y-69414285D02*
X79002380Y-69080952D01*
X80002380Y-68747619D01*
X80002380Y-68414285D02*
X79002380Y-68414285D01*
X80002380Y-67842857D01*
X79002380Y-67842857D01*
X79002380Y-67509523D02*
X79002380Y-66938095D01*
X80002380Y-67223809D02*
X79002380Y-67223809D01*
X79097619Y-66652380D02*
X79050000Y-66604761D01*
X79002380Y-66509523D01*
X79002380Y-66271428D01*
X79050000Y-66176190D01*
X79097619Y-66128571D01*
X79192857Y-66080952D01*
X79288095Y-66080952D01*
X79430952Y-66128571D01*
X80002380Y-66700000D01*
X80002380Y-66080952D01*
X76510000Y-68461904D02*
X76462380Y-68557142D01*
X76462380Y-68700000D01*
X76510000Y-68842857D01*
X76605238Y-68938095D01*
X76700476Y-68985714D01*
X76890952Y-69033333D01*
X77033809Y-69033333D01*
X77224285Y-68985714D01*
X77319523Y-68938095D01*
X77414761Y-68842857D01*
X77462380Y-68700000D01*
X77462380Y-68604761D01*
X77414761Y-68461904D01*
X77367142Y-68414285D01*
X77033809Y-68414285D01*
X77033809Y-68604761D01*
X77462380Y-67985714D02*
X76462380Y-67985714D01*
X77462380Y-67414285D01*
X76462380Y-67414285D01*
X77462380Y-66938095D02*
X76462380Y-66938095D01*
X76462380Y-66700000D01*
X76510000Y-66557142D01*
X76605238Y-66461904D01*
X76700476Y-66414285D01*
X76890952Y-66366666D01*
X77033809Y-66366666D01*
X77224285Y-66414285D01*
X77319523Y-66461904D01*
X77414761Y-66557142D01*
X77462380Y-66700000D01*
X77462380Y-66938095D01*
X73970000Y-68461904D02*
X73922380Y-68557142D01*
X73922380Y-68700000D01*
X73970000Y-68842857D01*
X74065238Y-68938095D01*
X74160476Y-68985714D01*
X74350952Y-69033333D01*
X74493809Y-69033333D01*
X74684285Y-68985714D01*
X74779523Y-68938095D01*
X74874761Y-68842857D01*
X74922380Y-68700000D01*
X74922380Y-68604761D01*
X74874761Y-68461904D01*
X74827142Y-68414285D01*
X74493809Y-68414285D01*
X74493809Y-68604761D01*
X74922380Y-67985714D02*
X73922380Y-67985714D01*
X74922380Y-67414285D01*
X73922380Y-67414285D01*
X74922380Y-66938095D02*
X73922380Y-66938095D01*
X73922380Y-66700000D01*
X73970000Y-66557142D01*
X74065238Y-66461904D01*
X74160476Y-66414285D01*
X74350952Y-66366666D01*
X74493809Y-66366666D01*
X74684285Y-66414285D01*
X74779523Y-66461904D01*
X74874761Y-66557142D01*
X74922380Y-66700000D01*
X74922380Y-66938095D01*
X74531428Y-105241904D02*
X74531428Y-104480000D01*
X74912380Y-104860952D02*
X74150476Y-104860952D01*
X74912380Y-103480000D02*
X74912380Y-104051428D01*
X74912380Y-103765714D02*
X73912380Y-103765714D01*
X74055238Y-103860952D01*
X74150476Y-103956190D01*
X74198095Y-104051428D01*
X74007619Y-103099047D02*
X73960000Y-103051428D01*
X73912380Y-102956190D01*
X73912380Y-102718095D01*
X73960000Y-102622857D01*
X74007619Y-102575238D01*
X74102857Y-102527619D01*
X74198095Y-102527619D01*
X74340952Y-102575238D01*
X74912380Y-103146666D01*
X74912380Y-102527619D01*
X73912380Y-102241904D02*
X74912380Y-101908571D01*
X73912380Y-101575238D01*
X76472380Y-105025714D02*
X76472380Y-104454285D01*
X77472380Y-104740000D02*
X76472380Y-104740000D01*
X77472380Y-104120952D02*
X76472380Y-104120952D01*
X76472380Y-103882857D01*
X76520000Y-103740000D01*
X76615238Y-103644761D01*
X76710476Y-103597142D01*
X76900952Y-103549523D01*
X77043809Y-103549523D01*
X77234285Y-103597142D01*
X77329523Y-103644761D01*
X77424761Y-103740000D01*
X77472380Y-103882857D01*
X77472380Y-104120952D01*
X80012380Y-104430476D02*
X79536190Y-104763809D01*
X80012380Y-105001904D02*
X79012380Y-105001904D01*
X79012380Y-104620952D01*
X79060000Y-104525714D01*
X79107619Y-104478095D01*
X79202857Y-104430476D01*
X79345714Y-104430476D01*
X79440952Y-104478095D01*
X79488571Y-104525714D01*
X79536190Y-104620952D01*
X79536190Y-105001904D01*
X80012380Y-104001904D02*
X79012380Y-104001904D01*
X79012380Y-103763809D01*
X79060000Y-103620952D01*
X79155238Y-103525714D01*
X79250476Y-103478095D01*
X79440952Y-103430476D01*
X79583809Y-103430476D01*
X79774285Y-103478095D01*
X79869523Y-103525714D01*
X79964761Y-103620952D01*
X80012380Y-103763809D01*
X80012380Y-104001904D01*
X81600000Y-105001904D02*
X81552380Y-105097142D01*
X81552380Y-105240000D01*
X81600000Y-105382857D01*
X81695238Y-105478095D01*
X81790476Y-105525714D01*
X81980952Y-105573333D01*
X82123809Y-105573333D01*
X82314285Y-105525714D01*
X82409523Y-105478095D01*
X82504761Y-105382857D01*
X82552380Y-105240000D01*
X82552380Y-105144761D01*
X82504761Y-105001904D01*
X82457142Y-104954285D01*
X82123809Y-104954285D01*
X82123809Y-105144761D01*
X82552380Y-104525714D02*
X81552380Y-104525714D01*
X82552380Y-103954285D01*
X81552380Y-103954285D01*
X82552380Y-103478095D02*
X81552380Y-103478095D01*
X81552380Y-103240000D01*
X81600000Y-103097142D01*
X81695238Y-103001904D01*
X81790476Y-102954285D01*
X81980952Y-102906666D01*
X82123809Y-102906666D01*
X82314285Y-102954285D01*
X82409523Y-103001904D01*
X82504761Y-103097142D01*
X82552380Y-103240000D01*
X82552380Y-103478095D01*
%TO.C,C3*%
X116397142Y-88766666D02*
X116444761Y-88814285D01*
X116492380Y-88957142D01*
X116492380Y-89052380D01*
X116444761Y-89195238D01*
X116349523Y-89290476D01*
X116254285Y-89338095D01*
X116063809Y-89385714D01*
X115920952Y-89385714D01*
X115730476Y-89338095D01*
X115635238Y-89290476D01*
X115540000Y-89195238D01*
X115492380Y-89052380D01*
X115492380Y-88957142D01*
X115540000Y-88814285D01*
X115587619Y-88766666D01*
X115492380Y-88433333D02*
X115492380Y-87814285D01*
X115873333Y-88147619D01*
X115873333Y-88004761D01*
X115920952Y-87909523D01*
X115968571Y-87861904D01*
X116063809Y-87814285D01*
X116301904Y-87814285D01*
X116397142Y-87861904D01*
X116444761Y-87909523D01*
X116492380Y-88004761D01*
X116492380Y-88290476D01*
X116444761Y-88385714D01*
X116397142Y-88433333D01*
%TO.C,C7*%
X89713333Y-100477142D02*
X89665714Y-100524761D01*
X89522857Y-100572380D01*
X89427619Y-100572380D01*
X89284761Y-100524761D01*
X89189523Y-100429523D01*
X89141904Y-100334285D01*
X89094285Y-100143809D01*
X89094285Y-100000952D01*
X89141904Y-99810476D01*
X89189523Y-99715238D01*
X89284761Y-99620000D01*
X89427619Y-99572380D01*
X89522857Y-99572380D01*
X89665714Y-99620000D01*
X89713333Y-99667619D01*
X90046666Y-99572380D02*
X90713333Y-99572380D01*
X90284761Y-100572380D01*
%TO.C,R5*%
X123143333Y-97872380D02*
X122810000Y-97396190D01*
X122571904Y-97872380D02*
X122571904Y-96872380D01*
X122952857Y-96872380D01*
X123048095Y-96920000D01*
X123095714Y-96967619D01*
X123143333Y-97062857D01*
X123143333Y-97205714D01*
X123095714Y-97300952D01*
X123048095Y-97348571D01*
X122952857Y-97396190D01*
X122571904Y-97396190D01*
X124048095Y-96872380D02*
X123571904Y-96872380D01*
X123524285Y-97348571D01*
X123571904Y-97300952D01*
X123667142Y-97253333D01*
X123905238Y-97253333D01*
X124000476Y-97300952D01*
X124048095Y-97348571D01*
X124095714Y-97443809D01*
X124095714Y-97681904D01*
X124048095Y-97777142D01*
X124000476Y-97824761D01*
X123905238Y-97872380D01*
X123667142Y-97872380D01*
X123571904Y-97824761D01*
X123524285Y-97777142D01*
%TO.C,R4*%
X123833333Y-103452380D02*
X123500000Y-102976190D01*
X123261904Y-103452380D02*
X123261904Y-102452380D01*
X123642857Y-102452380D01*
X123738095Y-102500000D01*
X123785714Y-102547619D01*
X123833333Y-102642857D01*
X123833333Y-102785714D01*
X123785714Y-102880952D01*
X123738095Y-102928571D01*
X123642857Y-102976190D01*
X123261904Y-102976190D01*
X124690476Y-102785714D02*
X124690476Y-103452380D01*
X124452380Y-102404761D02*
X124214285Y-103119047D01*
X124833333Y-103119047D01*
%TO.C,PWM1*%
X128959047Y-97252380D02*
X128959047Y-96252380D01*
X129340000Y-96252380D01*
X129435238Y-96300000D01*
X129482857Y-96347619D01*
X129530476Y-96442857D01*
X129530476Y-96585714D01*
X129482857Y-96680952D01*
X129435238Y-96728571D01*
X129340000Y-96776190D01*
X128959047Y-96776190D01*
X129863809Y-96252380D02*
X130101904Y-97252380D01*
X130292380Y-96538095D01*
X130482857Y-97252380D01*
X130720952Y-96252380D01*
X131101904Y-97252380D02*
X131101904Y-96252380D01*
X131435238Y-96966666D01*
X131768571Y-96252380D01*
X131768571Y-97252380D01*
X132768571Y-97252380D02*
X132197142Y-97252380D01*
X132482857Y-97252380D02*
X132482857Y-96252380D01*
X132387619Y-96395238D01*
X132292380Y-96490476D01*
X132197142Y-96538095D01*
%TO.C,C8*%
X128333333Y-109357142D02*
X128285714Y-109404761D01*
X128142857Y-109452380D01*
X128047619Y-109452380D01*
X127904761Y-109404761D01*
X127809523Y-109309523D01*
X127761904Y-109214285D01*
X127714285Y-109023809D01*
X127714285Y-108880952D01*
X127761904Y-108690476D01*
X127809523Y-108595238D01*
X127904761Y-108500000D01*
X128047619Y-108452380D01*
X128142857Y-108452380D01*
X128285714Y-108500000D01*
X128333333Y-108547619D01*
X128904761Y-108880952D02*
X128809523Y-108833333D01*
X128761904Y-108785714D01*
X128714285Y-108690476D01*
X128714285Y-108642857D01*
X128761904Y-108547619D01*
X128809523Y-108500000D01*
X128904761Y-108452380D01*
X129095238Y-108452380D01*
X129190476Y-108500000D01*
X129238095Y-108547619D01*
X129285714Y-108642857D01*
X129285714Y-108690476D01*
X129238095Y-108785714D01*
X129190476Y-108833333D01*
X129095238Y-108880952D01*
X128904761Y-108880952D01*
X128809523Y-108928571D01*
X128761904Y-108976190D01*
X128714285Y-109071428D01*
X128714285Y-109261904D01*
X128761904Y-109357142D01*
X128809523Y-109404761D01*
X128904761Y-109452380D01*
X129095238Y-109452380D01*
X129190476Y-109404761D01*
X129238095Y-109357142D01*
X129285714Y-109261904D01*
X129285714Y-109071428D01*
X129238095Y-108976190D01*
X129190476Y-108928571D01*
X129095238Y-108880952D01*
%TO.C,RF_OUT1*%
X100612380Y-70104761D02*
X100136190Y-70438095D01*
X100612380Y-70676190D02*
X99612380Y-70676190D01*
X99612380Y-70295238D01*
X99660000Y-70200000D01*
X99707619Y-70152380D01*
X99802857Y-70104761D01*
X99945714Y-70104761D01*
X100040952Y-70152380D01*
X100088571Y-70200000D01*
X100136190Y-70295238D01*
X100136190Y-70676190D01*
X100088571Y-69342857D02*
X100088571Y-69676190D01*
X100612380Y-69676190D02*
X99612380Y-69676190D01*
X99612380Y-69200000D01*
X100707619Y-69057142D02*
X100707619Y-68295238D01*
X99612380Y-67866666D02*
X99612380Y-67676190D01*
X99660000Y-67580952D01*
X99755238Y-67485714D01*
X99945714Y-67438095D01*
X100279047Y-67438095D01*
X100469523Y-67485714D01*
X100564761Y-67580952D01*
X100612380Y-67676190D01*
X100612380Y-67866666D01*
X100564761Y-67961904D01*
X100469523Y-68057142D01*
X100279047Y-68104761D01*
X99945714Y-68104761D01*
X99755238Y-68057142D01*
X99660000Y-67961904D01*
X99612380Y-67866666D01*
X99612380Y-67009523D02*
X100421904Y-67009523D01*
X100517142Y-66961904D01*
X100564761Y-66914285D01*
X100612380Y-66819047D01*
X100612380Y-66628571D01*
X100564761Y-66533333D01*
X100517142Y-66485714D01*
X100421904Y-66438095D01*
X99612380Y-66438095D01*
X99612380Y-66104761D02*
X99612380Y-65533333D01*
X100612380Y-65819047D02*
X99612380Y-65819047D01*
X100612380Y-64676190D02*
X100612380Y-65247619D01*
X100612380Y-64961904D02*
X99612380Y-64961904D01*
X99755238Y-65057142D01*
X99850476Y-65152380D01*
X99898095Y-65247619D01*
%TO.C,R3*%
X107333333Y-105952380D02*
X107000000Y-105476190D01*
X106761904Y-105952380D02*
X106761904Y-104952380D01*
X107142857Y-104952380D01*
X107238095Y-105000000D01*
X107285714Y-105047619D01*
X107333333Y-105142857D01*
X107333333Y-105285714D01*
X107285714Y-105380952D01*
X107238095Y-105428571D01*
X107142857Y-105476190D01*
X106761904Y-105476190D01*
X107666666Y-104952380D02*
X108285714Y-104952380D01*
X107952380Y-105333333D01*
X108095238Y-105333333D01*
X108190476Y-105380952D01*
X108238095Y-105428571D01*
X108285714Y-105523809D01*
X108285714Y-105761904D01*
X108238095Y-105857142D01*
X108190476Y-105904761D01*
X108095238Y-105952380D01*
X107809523Y-105952380D01*
X107714285Y-105904761D01*
X107666666Y-105857142D01*
%TO.C,C2*%
X118453333Y-95447142D02*
X118405714Y-95494761D01*
X118262857Y-95542380D01*
X118167619Y-95542380D01*
X118024761Y-95494761D01*
X117929523Y-95399523D01*
X117881904Y-95304285D01*
X117834285Y-95113809D01*
X117834285Y-94970952D01*
X117881904Y-94780476D01*
X117929523Y-94685238D01*
X118024761Y-94590000D01*
X118167619Y-94542380D01*
X118262857Y-94542380D01*
X118405714Y-94590000D01*
X118453333Y-94637619D01*
X118834285Y-94637619D02*
X118881904Y-94590000D01*
X118977142Y-94542380D01*
X119215238Y-94542380D01*
X119310476Y-94590000D01*
X119358095Y-94637619D01*
X119405714Y-94732857D01*
X119405714Y-94828095D01*
X119358095Y-94970952D01*
X118786666Y-95542380D01*
X119405714Y-95542380D01*
%TO.C,PA1*%
X95448380Y-87272666D02*
X94448380Y-87272666D01*
X94448380Y-86891714D01*
X94496000Y-86796476D01*
X94543619Y-86748857D01*
X94638857Y-86701238D01*
X94781714Y-86701238D01*
X94876952Y-86748857D01*
X94924571Y-86796476D01*
X94972190Y-86891714D01*
X94972190Y-87272666D01*
X95162666Y-86320285D02*
X95162666Y-85844095D01*
X95448380Y-86415523D02*
X94448380Y-86082190D01*
X95448380Y-85748857D01*
X95448380Y-84891714D02*
X95448380Y-85463142D01*
X95448380Y-85177428D02*
X94448380Y-85177428D01*
X94591238Y-85272666D01*
X94686476Y-85367904D01*
X94734095Y-85463142D01*
%TO.C,RF_IN1*%
X110262380Y-69308095D02*
X109786190Y-69641428D01*
X110262380Y-69879523D02*
X109262380Y-69879523D01*
X109262380Y-69498571D01*
X109310000Y-69403333D01*
X109357619Y-69355714D01*
X109452857Y-69308095D01*
X109595714Y-69308095D01*
X109690952Y-69355714D01*
X109738571Y-69403333D01*
X109786190Y-69498571D01*
X109786190Y-69879523D01*
X109738571Y-68546190D02*
X109738571Y-68879523D01*
X110262380Y-68879523D02*
X109262380Y-68879523D01*
X109262380Y-68403333D01*
X110357619Y-68260476D02*
X110357619Y-67498571D01*
X110262380Y-67260476D02*
X109262380Y-67260476D01*
X110262380Y-66784285D02*
X109262380Y-66784285D01*
X110262380Y-66212857D01*
X109262380Y-66212857D01*
X110262380Y-65212857D02*
X110262380Y-65784285D01*
X110262380Y-65498571D02*
X109262380Y-65498571D01*
X109405238Y-65593809D01*
X109500476Y-65689047D01*
X109548095Y-65784285D01*
%TO.C,R2*%
X106483333Y-100552380D02*
X106150000Y-100076190D01*
X105911904Y-100552380D02*
X105911904Y-99552380D01*
X106292857Y-99552380D01*
X106388095Y-99600000D01*
X106435714Y-99647619D01*
X106483333Y-99742857D01*
X106483333Y-99885714D01*
X106435714Y-99980952D01*
X106388095Y-100028571D01*
X106292857Y-100076190D01*
X105911904Y-100076190D01*
X106864285Y-99647619D02*
X106911904Y-99600000D01*
X107007142Y-99552380D01*
X107245238Y-99552380D01*
X107340476Y-99600000D01*
X107388095Y-99647619D01*
X107435714Y-99742857D01*
X107435714Y-99838095D01*
X107388095Y-99980952D01*
X106816666Y-100552380D01*
X107435714Y-100552380D01*
%TO.C,Q2*%
X91494761Y-111527619D02*
X91399523Y-111480000D01*
X91304285Y-111384761D01*
X91161428Y-111241904D01*
X91066190Y-111194285D01*
X90970952Y-111194285D01*
X91018571Y-111432380D02*
X90923333Y-111384761D01*
X90828095Y-111289523D01*
X90780476Y-111099047D01*
X90780476Y-110765714D01*
X90828095Y-110575238D01*
X90923333Y-110480000D01*
X91018571Y-110432380D01*
X91209047Y-110432380D01*
X91304285Y-110480000D01*
X91399523Y-110575238D01*
X91447142Y-110765714D01*
X91447142Y-111099047D01*
X91399523Y-111289523D01*
X91304285Y-111384761D01*
X91209047Y-111432380D01*
X91018571Y-111432380D01*
X91828095Y-110527619D02*
X91875714Y-110480000D01*
X91970952Y-110432380D01*
X92209047Y-110432380D01*
X92304285Y-110480000D01*
X92351904Y-110527619D01*
X92399523Y-110622857D01*
X92399523Y-110718095D01*
X92351904Y-110860952D01*
X91780476Y-111432380D01*
X92399523Y-111432380D01*
%TD*%
M02*
