%TF.GenerationSoftware,KiCad,Pcbnew,5.99.0+really5.1.10+dfsg1-1*%
%TF.CreationDate,2021-10-04T18:21:49+05:30*%
%TF.ProjectId,HF-PA-v3,48462d50-412d-4763-932e-6b696361645f,rev?*%
%TF.SameCoordinates,Original*%
%TF.FileFunction,Soldermask,Top*%
%TF.FilePolarity,Negative*%
%FSLAX46Y46*%
G04 Gerber Fmt 4.6, Leading zero omitted, Abs format (unit mm)*
G04 Created by KiCad (PCBNEW 5.99.0+really5.1.10+dfsg1-1) date 2021-10-04 18:21:49*
%MOMM*%
%LPD*%
G01*
G04 APERTURE LIST*
%ADD10C,1.600000*%
%ADD11R,1.600000X1.600000*%
%ADD12R,1.700000X1.700000*%
%ADD13C,1.550000*%
%ADD14R,1.550000X1.550000*%
%ADD15O,2.200000X2.200000*%
%ADD16R,2.200000X2.200000*%
%ADD17C,2.000000*%
%ADD18C,1.700000*%
%ADD19O,1.700000X1.700000*%
%ADD20O,2.000000X1.905000*%
%ADD21R,2.000000X1.905000*%
%ADD22O,1.600000X1.600000*%
%ADD23C,2.250000*%
%ADD24C,2.050000*%
%ADD25O,1.905000X2.000000*%
%ADD26R,1.905000X2.000000*%
G04 APERTURE END LIST*
D10*
%TO.C,C6*%
X103298000Y-74422000D03*
X98298000Y-74422000D03*
%TD*%
%TO.C,C5*%
X89460000Y-81220000D03*
D11*
X91960000Y-81220000D03*
%TD*%
D12*
%TO.C,TP1*%
X116360000Y-98310000D03*
%TD*%
D13*
%TO.C,RV1*%
X113130000Y-80070000D03*
D14*
X113130000Y-75070000D03*
D13*
X118130000Y-77570000D03*
%TD*%
D15*
%TO.C,D1*%
X110710000Y-92660000D03*
D16*
X106900000Y-92660000D03*
%TD*%
D13*
%TO.C,RV2*%
X113210000Y-86210000D03*
D14*
X108210000Y-88710000D03*
D13*
X108210000Y-83710000D03*
%TD*%
D17*
%TO.C,L1*%
X125460000Y-89020000D03*
X130540000Y-89020000D03*
%TD*%
D18*
%TO.C,L2*%
X104100000Y-102310000D03*
X96100000Y-102310000D03*
X104100000Y-96810000D03*
X96100000Y-107770000D03*
%TD*%
D19*
%TO.C,Q1*%
X125470000Y-73740000D03*
X128010000Y-73740000D03*
D12*
X130550000Y-73740000D03*
%TD*%
D10*
%TO.C,C4*%
X101934000Y-77470000D03*
X106934000Y-77470000D03*
%TD*%
D20*
%TO.C,U1*%
X101930000Y-83800000D03*
X101930000Y-86340000D03*
D21*
X101930000Y-88880000D03*
%TD*%
D22*
%TO.C,R1*%
X127730000Y-81100000D03*
D10*
X125190000Y-81100000D03*
%TD*%
%TO.C,C1*%
X123020000Y-67960000D03*
X128020000Y-67960000D03*
%TD*%
D17*
%TO.C,U2*%
X74670000Y-65070000D03*
X77210000Y-65070000D03*
X79750000Y-65070000D03*
X82290000Y-65070000D03*
X74570000Y-106850000D03*
X77110000Y-106850000D03*
X79650000Y-106850000D03*
X82190000Y-106850000D03*
%TD*%
D10*
%TO.C,C3*%
X118310000Y-88510000D03*
X118310000Y-83510000D03*
%TD*%
%TO.C,C7*%
X92380000Y-102320000D03*
X87380000Y-102320000D03*
%TD*%
D22*
%TO.C,R5*%
X120420000Y-102060000D03*
D10*
X120420000Y-99520000D03*
%TD*%
D22*
%TO.C,R4*%
X120480000Y-108360000D03*
D10*
X120480000Y-105820000D03*
%TD*%
D19*
%TO.C,PWM1*%
X131110000Y-102060000D03*
D12*
X131110000Y-99520000D03*
%TD*%
D10*
%TO.C,C8*%
X131130000Y-110830000D03*
X131130000Y-105830000D03*
%TD*%
D23*
%TO.C,RF_OUT1*%
X91890000Y-70770000D03*
X91890000Y-65690000D03*
X96970000Y-65690000D03*
X96970000Y-70770000D03*
D24*
X94430000Y-68230000D03*
%TD*%
D22*
%TO.C,R3*%
X111700000Y-108370000D03*
D10*
X109160000Y-108370000D03*
%TD*%
%TO.C,C2*%
X121360000Y-92680000D03*
X116360000Y-92680000D03*
%TD*%
D19*
%TO.C,PA1*%
X89470000Y-88890000D03*
D12*
X92010000Y-88890000D03*
%TD*%
D23*
%TO.C,RF_IN1*%
X112700000Y-70480000D03*
X112700000Y-65400000D03*
X117780000Y-65400000D03*
X117780000Y-70480000D03*
D24*
X115240000Y-67940000D03*
%TD*%
D22*
%TO.C,R2*%
X111720000Y-102600000D03*
D10*
X109180000Y-102600000D03*
%TD*%
D25*
%TO.C,Q2*%
X96210000Y-113180000D03*
X98750000Y-113180000D03*
D26*
X101290000Y-113180000D03*
%TD*%
M02*
